<?xml version="1.0" encoding="UTF-8" standalone="no"?>
<!DOCTYPE svg PUBLIC "-//W3C//DTD SVG 1.1//EN" "http://www.w3.org/Graphics/SVG/1.1/DTD/svg11.dtd">
<svg width="100%" height="100%" viewBox="0 0 1024 1024" version="1.1" xmlns="http://www.w3.org/2000/svg" xmlns:xlink="http://www.w3.org/1999/xlink" xml:space="preserve" xmlns:serif="http://www.serif.com/" style="fill-rule:evenodd;clip-rule:evenodd;stroke-linejoin:round;stroke-miterlimit:2;">
    <g transform="matrix(1.241011,0,0,1.241011,-1880.815975,-353.052214)">
        <path d="M2340.686,490.771L2340.686,903.338C2340.686,1017.189 2248.253,1109.622 2134.403,1109.622L1721.836,1109.622C1607.985,1109.622 1515.552,1017.189 1515.552,903.338L1515.552,490.771C1515.552,376.92 1607.985,284.488 1721.836,284.488L2134.403,284.488C2248.253,284.488 2340.686,376.92 2340.686,490.771Z" style="fill:rgb(126,69,102);"/>
    </g>
    <g transform="matrix(0.430229,0,0,0.418473,49.526675,-12.991468)">
        <path d="M281.02,823.505C406.118,508.621 713.698,285.758 1072.92,285.758C1430.148,285.758 1736.306,506.154 1862.72,818.27C1839.915,796.042 1811.431,779.614 1779.661,771.379C1647.053,516.131 1380.207,341.607 1072.92,341.607C765.247,341.607 498.117,516.569 365.68,772.341C332.917,781.536 303.801,799.487 281.02,823.505Z" style="fill:rgb(143,174,174);"/>
    </g>
    <g transform="matrix(0.575015,0,0,0.587354,-95.167551,-136.018723)">
        <path d="M1678.557,902.38L1678.557,1159.039C1678.557,1229.865 1619.821,1287.368 1547.474,1287.368L563.615,1287.368C491.269,1287.368 432.532,1229.865 432.532,1159.039L432.532,902.38C432.532,831.554 491.269,774.051 563.615,774.051L1547.474,774.051C1619.821,774.051 1678.557,831.554 1678.557,902.38Z" style="fill:rgb(222,163,162);"/>
    </g>
    <g transform="matrix(0.546468,0,0,0.519953,-65.035072,-66.547584)">
        <path d="M1678.557,893.348L1678.557,1168.071C1678.557,1233.913 1626.267,1287.368 1561.86,1287.368L549.229,1287.368C484.823,1287.368 432.532,1233.913 432.532,1168.071L432.532,893.348C432.532,827.506 484.823,774.051 549.229,774.051L1561.86,774.051C1626.267,774.051 1678.557,827.506 1678.557,893.348ZM1641.362,903.329C1641.362,852.964 1601.364,812.075 1552.097,812.075L558.992,812.075C509.726,812.075 469.727,852.964 469.727,903.329L469.727,1158.09C469.727,1208.455 509.726,1249.344 558.992,1249.344L1552.097,1249.344C1601.364,1249.344 1641.362,1208.455 1641.362,1158.09L1641.362,903.329Z" style="fill:rgb(126,69,102);"/>
    </g>
    <g transform="matrix(0.575015,0,0,0.587354,-95.167551,148.921382)">
        <path d="M1678.557,902.38L1678.557,1159.039C1678.557,1229.865 1619.821,1287.368 1547.474,1287.368L563.615,1287.368C491.269,1287.368 432.532,1229.865 432.532,1159.039L432.532,902.38C432.532,831.554 491.269,774.051 563.615,774.051L1547.474,774.051C1619.821,774.051 1678.557,831.554 1678.557,902.38Z" style="fill:rgb(196,175,125);"/>
    </g>
    <g transform="matrix(0.546468,0,0,0.519953,-65.035072,218.39252)">
        <path d="M1678.557,893.348L1678.557,1168.071C1678.557,1233.913 1626.267,1287.368 1561.86,1287.368L549.229,1287.368C484.823,1287.368 432.532,1233.913 432.532,1168.071L432.532,893.348C432.532,827.506 484.823,774.051 549.229,774.051L1561.86,774.051C1626.267,774.051 1678.557,827.506 1678.557,893.348ZM1641.362,903.329C1641.362,852.964 1601.364,812.075 1552.097,812.075L558.992,812.075C509.726,812.075 469.727,852.964 469.727,903.329L469.727,1158.09C469.727,1208.455 509.726,1249.344 558.992,1249.344L1552.097,1249.344C1601.364,1249.344 1641.362,1208.455 1641.362,1158.09L1641.362,903.329Z" style="fill:rgb(126,69,102);"/>
    </g>
    <g transform="matrix(0.59172,0,0,0.405413,-173.238657,104.87799)">
        <path d="M966.859,752.973L966.859,1046.263C966.859,1097.885 938.144,1139.796 902.776,1139.796L709.544,1139.796C674.175,1139.796 645.461,1097.885 645.461,1046.263L645.461,752.973C645.461,701.351 674.175,659.441 709.544,659.441L902.776,659.441C938.144,659.441 966.859,701.351 966.859,752.973Z" style="fill:rgb(126,69,102);"/>
    </g>
    <g transform="matrix(6.5474,0,0,6.368501,225.213539,393.173219)">
        <path d="M4,11L8,11C8.549,11 9,11.451 9,12L9,20C9,20.549 8.549,21 8,21L6,21C4.421,21 3.098,19.753 3.005,18.176L3,18L3,12C3,11.451 3.451,11 4,11Z" style="fill:rgb(196,175,125);fill-rule:nonzero;"/>
        <path d="M21,12L21,18C21,19.579 19.753,20.902 18.176,20.995L18,21L12,21C11.451,21 11,20.549 11,20L11,12C11,11.451 11.451,11 12,11L20,11C20.549,11 21,11.451 21,12Z" style="fill:rgb(196,175,125);fill-rule:nonzero;"/>
        <path d="M18,3C19.579,3 20.902,4.247 20.995,5.824L21,6L21,8C21,8.549 20.549,9 20,9L12,9C11.451,9 11,8.549 11,8L11,4C11,3.451 11.451,3 12,3L18,3Z" style="fill:rgb(196,175,125);fill-rule:nonzero;"/>
        <path d="M9,4L9,8C9,8.549 8.549,9 8,9L4,9C3.451,9 3,8.549 3,8L3,6C3,4.421 4.247,3.098 5.824,3.005L6,3L8,3C8.549,3 9,3.451 9,4Z" style="fill:rgb(196,175,125);fill-rule:nonzero;"/>
    </g>
    <g transform="matrix(0.59172,0,0,0.405413,33.246062,104.87799)">
        <path d="M966.859,752.973L966.859,1046.263C966.859,1097.885 938.144,1139.796 902.776,1139.796L709.544,1139.796C674.175,1139.796 645.461,1097.885 645.461,1046.263L645.461,752.973C645.461,701.351 674.175,659.441 709.544,659.441L902.776,659.441C938.144,659.441 966.859,701.351 966.859,752.973Z" style="fill:rgb(126,69,102);"/>
    </g>
    <g transform="matrix(6.5474,0,0,6.368501,431.698258,393.172067)">
        <path d="M17,3.34C20.09,5.124 22,8.432 22,12C22,17.486 17.486,22 12,22C6.514,22 2,17.486 2,12C2,12 2.005,11.676 2.005,11.676C2.179,6.315 6.636,2 12,2C13.755,2 15.48,2.462 17,3.34M12,15C11.451,15 11,15.451 11,16L11,16.01C11,16.559 11.451,17.01 12,17.01C12.549,17.01 13,16.559 13,16.01L13,16C13,15.451 12.549,15 12,15M12,8C11.451,8 11,8.451 11,9L11,13C11,13.549 11.451,14 12,14C12.549,14 13,13.549 13,13L13,9C13,8.451 12.549,8 12,8" style="fill:rgb(222,163,162);fill-rule:nonzero;"/>
    </g>
    <g transform="matrix(0.59172,0,0,0.405413,239.730781,104.87799)">
        <path d="M966.859,752.973L966.859,1046.263C966.859,1097.885 938.144,1139.796 902.776,1139.796L709.544,1139.796C674.175,1139.796 645.461,1097.885 645.461,1046.263L645.461,752.973C645.461,701.351 674.175,659.441 709.544,659.441L902.776,659.441C938.144,659.441 966.859,701.351 966.859,752.973Z" style="fill:rgb(126,69,102);"/>
    </g>
    <g transform="matrix(6.5474,0,0,6.368501,638.182977,393.173219)">
        <path d="M22,10L22,16C22,18.194 20.194,20 18,20L6,20C3.806,20 2,18.194 2,16L2,10L22,10ZM7.01,14L7,14C6.453,14.003 6.005,14.453 6.005,15C6.005,15.549 6.456,16 7.005,16C7.007,16 7.008,16 7.01,16C7.559,16 8.01,15.549 8.01,15C8.01,14.451 7.559,14 7.01,14M13,14L11,14C10.451,14 10,14.451 10,15C10,15.549 10.451,16 11,16L13,16C13.549,16 14,15.549 14,15C14,14.451 13.549,14 13,14ZM18,4C20.194,4 22,5.806 22,8L2,8C2,5.806 3.806,4 6,4L18,4Z" style="fill:rgb(143,174,174);fill-rule:nonzero;"/>
    </g>
    <g transform="matrix(0.208851,0,0,0.203144,76.42697,325.800961)">
        <path d="M980.387,2375.179C1111.021,2375.179 1191.625,2287.279 1203.438,2191.041L1096.082,2191.041C1085.659,2247.324 1041.187,2281.025 982.124,2281.025C902.215,2281.025 847.668,2221.962 847.668,2109.742C847.668,1999.953 901.52,1937.763 982.471,1937.763C1041.535,1937.763 1086.006,1971.117 1095.734,2027.4L1203.09,2027.4C1187.803,1911.011 1098.166,1843.609 980.387,1843.609C843.846,1843.609 739.964,1940.543 739.964,2109.742C739.964,2277.898 842.457,2375.179 980.387,2375.179Z" style="fill:rgb(126,69,102);fill-rule:nonzero;"/>
        <path d="M1507.789,2375.179C1645.024,2375.179 1749.253,2278.246 1749.253,2109.742C1749.253,1940.543 1645.024,1843.609 1507.789,1843.609C1370.553,1843.609 1266.324,1940.543 1266.324,2109.742C1266.324,2277.898 1370.553,2375.179 1507.789,2375.179ZM1507.789,2281.025C1427.532,2281.025 1374.028,2220.572 1374.028,2109.742C1374.028,1998.564 1427.532,1937.763 1507.789,1937.763C1588.045,1937.763 1641.55,1998.216 1641.55,2109.742C1641.55,2220.572 1588.045,2281.025 1507.789,2281.025Z" style="fill:rgb(126,69,102);fill-rule:nonzero;"/>
        <path d="M1828.816,2368.231L1934.088,2368.231L1934.088,2123.986C1934.088,2085.074 1931.308,2008.987 1930.266,1946.102C1948.68,2015.588 1969.526,2088.201 1981.686,2123.986L2068.891,2368.231L2158.181,2368.231L2243.997,2123.986C2256.157,2087.159 2278.045,2011.766 2295.416,1941.932C2294.374,2007.249 2291.595,2085.074 2291.595,2123.986L2291.595,2368.231L2398.256,2368.231L2398.256,1850.558L2234.963,1850.558L2152.275,2088.201C2141.852,2121.207 2125.87,2190.346 2114.057,2246.282C2101.897,2189.998 2085.915,2120.859 2075.492,2088.201L1991.414,1850.558L1828.816,1850.558L1828.816,2368.231Z" style="fill:rgb(126,69,102);fill-rule:nonzero;"/>
        <path d="M2491.716,2368.231L2710.251,2368.231C2826.987,2368.231 2888.135,2307.43 2888.135,2225.436C2888.135,2148.654 2833.241,2102.793 2774.873,2100.014L2774.873,2094.802C2828.03,2082.989 2867.984,2045.119 2867.984,1983.624C2867.984,1906.147 2810.658,1850.558 2697.048,1850.558L2491.716,1850.558L2491.716,2368.231ZM2597.683,2281.025L2597.683,2140.663L2692.184,2140.663C2745.341,2140.663 2779.042,2171.932 2779.042,2215.361C2779.042,2254.62 2751.595,2281.025 2689.405,2281.025L2597.683,2281.025ZM2597.683,2068.05L2597.683,1937.068L2683.498,1937.068C2733.181,1937.068 2760.628,1962.778 2760.628,2000.648C2760.628,2042.34 2726.927,2068.05 2681.414,2068.05L2597.683,2068.05Z" style="fill:rgb(126,69,102);fill-rule:nonzero;"/>
        <path d="M3189.707,2375.179C3326.942,2375.179 3431.171,2278.246 3431.171,2109.742C3431.171,1940.543 3326.942,1843.609 3189.707,1843.609C3052.471,1843.609 2948.242,1940.543 2948.242,2109.742C2948.242,2277.898 3052.471,2375.179 3189.707,2375.179ZM3189.707,2281.025C3109.45,2281.025 3055.946,2220.572 3055.946,2109.742C3055.946,1998.564 3109.45,1937.763 3189.707,1937.763C3269.963,1937.763 3323.468,1998.216 3323.468,2109.742C3323.468,2220.572 3269.963,2281.025 3189.707,2281.025Z" style="fill:rgb(126,69,102);fill-rule:nonzero;"/>
    </g>
    <g transform="matrix(0.32903,0,0,0.332302,172.385094,295.863604)">
        <path d="M206.344,1.308C384.429,-262.527 686.17,-436.156 1028.145,-436.156C1370.119,-436.156 1671.86,-262.527 1849.945,1.308L206.344,1.308Z" style="fill:rgb(143,174,174);"/>
    </g>
    <g transform="matrix(0.362253,0,0,0.352355,179.385553,114.87039)">
        <g transform="matrix(0.947939,0,0,1.174136,1332.696466,63.743557)">
            <path d="M886.158,659.441L902.776,659.441C938.144,659.441 966.859,682.623 966.859,711.178L966.859,1088.058C966.859,1116.613 938.144,1139.796 902.776,1139.796L709.544,1139.796C674.175,1139.796 645.461,1116.613 645.461,1088.058L645.461,711.178C645.461,682.623 674.175,659.441 709.544,659.441L726.161,659.441L726.161,826.498C726.161,862.144 762.007,891.085 806.16,891.085C850.312,891.085 886.158,862.144 886.158,826.498L886.158,659.441Z" style="fill:rgb(222,163,162);"/>
        </g>
        <g transform="matrix(0.341323,0,0,1.174136,1821.725759,-250.318634)">
            <path d="M966.859,799.24L966.859,1093.08C966.859,1118.863 894.852,1139.796 806.16,1139.796C717.467,1139.796 645.461,1118.863 645.461,1093.08L645.461,799.24C694.151,805.999 748.647,809.783 806.16,809.783C863.672,809.783 918.168,805.999 966.859,799.24Z" style="fill:rgb(222,163,162);"/>
        </g>
        <g transform="matrix(1.155174,0,0,1.155174,-232.175825,-248.59896)">
            <circle cx="2016.201" cy="711.153" r="92.028" style="fill:rgb(222,163,162);"/>
        </g>
    </g>
    <g transform="matrix(4.691292,0,0,4.691292,455.491145,169.075093)">
        <path d="M13,2L13.018,2.001L13.034,2.002L13.117,2.007L13.128,2.009L13.139,2.009L13.177,2.018L13.229,2.026L13.245,2.032L13.256,2.033L13.285,2.044L13.337,2.058L13.356,2.067L13.371,2.071L13.399,2.085L13.439,2.102L13.46,2.114L13.482,2.124L13.505,2.139L13.536,2.156L13.57,2.18L13.588,2.191L13.601,2.203L13.625,2.22L13.663,2.254L13.685,2.271L13.693,2.281L13.707,2.293L13.743,2.334L13.769,2.361L13.775,2.37C13.895,2.517 13.971,2.692 13.993,2.883L13.994,2.895L13.996,2.936L14,3L14,9C14,9 19,9 19,9C19.549,9 20,9.451 20,10C20,10.174 19.955,10.346 19.868,10.497L19.808,10.588L11.808,21.588C11.24,22.371 10,21.968 10,21L10,15C10,15 5,15 5,15C4.451,15 4,14.549 4,14C4,13.826 4.045,13.654 4.132,13.503L4.192,13.412L12.192,2.412L12.202,2.399L12.22,2.375L12.253,2.337L12.271,2.315L12.28,2.307L12.293,2.293L12.333,2.257L12.361,2.231L12.369,2.225C12.486,2.129 12.624,2.061 12.771,2.026L12.782,2.025L12.809,2.02L12.883,2.007L12.894,2.006L12.935,2.004L13,2Z" style="fill:rgb(126,69,102);fill-rule:nonzero;"/>
    </g>
</svg>
